# xmcd CD database file
#
# Track frame offsets:
#	150
#	15924
#	40810
#	62656
#	82029
#	94524
#	105277
#	118118
#	133437
#
# Disc length: 1955 seconds
#
# Revision: 0
# Processed by: cddbd v1.5.2PL0 Copyright (c) Steve Scherf et al.
# Submitted via: CDex 1.51
#
DISCID=6b07a109
DTITLE=Willie Rodriguez and his Orchestra - The Puerto Rico Kid
DYEAR=1900
DGENRE=Salsa
TTITLE0=Puerto Rican
TTITLE1=Campesino
TTITLE2=Via Fiel
TTITLE3=Mi Pueblo Y Mis Amigos
TTITLE4=Fiesta
TTITLE5=Guaguanco #1
TTITLE6=El Velorio
TTITLE7=Que Dichoso Es
TTITLE8=Ruby
EXTD=
EXTT0=
EXTT1=
EXTT2=
EXTT3=
EXTT4=
EXTT5=
EXTT6=
EXTT7=
EXTT8=
PLAYORDER=
